<svg width="512" height="512" viewBox="0 0 100 100" fill="none" xmlns="http://www.w3.org/2000/svg">
    <rect width="100" height="100" fill="#0B0E14"/>
    <path d="M50 5 L93.3 30 V80 L50 105 L6.7 80 V30 L50 5Z" stroke="#EAB308" stroke-width="2" stroke-opacity="0.3" fill="none" transform="scale(0.9) translate(5.5, -2.5)"/>
    <path d="M10 50 C10 50 30 20 50 20 C70 20 90 50 90 50 C90 50 70 80 50 80 C30 80 10 50 10 50 Z" stroke="#EAB308" stroke-width="4" stroke-linecap="round" stroke-linejoin="round"/>
    <circle cx="50" cy="50" r="8" fill="#EAB308" />
    <path d="M85 50 H95" stroke="#EAB308" stroke-width="2" stroke-opacity="0.5"/>
    <path d="M5 50 H15" stroke="#EAB308" stroke-width="2" stroke-opacity="0.5"/>
    <path d="M50 20 V10" stroke="#EAB308" stroke-width="2" stroke-opacity="0.5"/>
    <path d="M50 80 V90" stroke="#EAB308" stroke-width="2" stroke-opacity="0.5"/>
    <rect x="46" y="35" width="8" height="30" rx="1" stroke="#EAB308" stroke-width="1" fill="transparent" />
</svg>
